<svg xmlns="http://www.w3.org/2000/svg" viewBox="0 0 283.46 85.04"><defs><style>.cls-1,.cls-2{fill:#1f5eff;}.cls-2{fill-rule:evenodd;}</style></defs><g id="Layer_4" data-name="Layer 4"><path class="cls-1" d="M86.63,48.6a12.47,12.47,0,0,0,6.64,2.18c2.74,0,3.83-1.09,3.83-2.52s-1-2.21-4.88-3.3c-5.11-1.43-7.77-3.23-7.77-6.83,0-4,3-6.68,8.78-6.68,6,0,8.53,2.32,8.53,2.32l-2.45,3.72a10.57,10.57,0,0,0-6.08-1.88c-2.47,0-3.68.87-3.68,2.25s1.17,2,4.7,2.93c5.52,1.47,8,3.42,8,7.06,0,3.94-2.74,7.1-8.9,7.1s-9.23-2.89-9.23-2.89Zm40.05-16.67h5.26l-8.52,13.93v8.6h-4.55V45.82l-8.44-13.89h5.25l4.66,7.85.64,1.43h.41l.68-1.43ZM142.26,48.6a12.52,12.52,0,0,0,6.65,2.18c2.74,0,3.83-1.09,3.83-2.52s-1-2.21-4.88-3.3c-5.11-1.43-7.77-3.23-7.77-6.83,0-4,3-6.68,8.78-6.68,6,0,8.52,2.32,8.52,2.32L155,37.49a10.57,10.57,0,0,0-6.08-1.88c-2.48,0-3.68.87-3.68,2.25s1.16,2,4.69,2.93c5.52,1.47,8,3.42,8,7.06,0,3.94-2.74,7.1-8.9,7.1s-9.24-2.89-9.24-2.89Zm45.58,3.57s-2.52,2.78-8,2.78c-7.36,0-12-5.26-12-11.75s4.62-11.75,12-11.75c5.48,0,8,2.77,8,2.77l-2.59,3.49A9.3,9.3,0,0,0,180,35.8a7.11,7.11,0,0,0-7.35,7.4A7.13,7.13,0,0,0,180,50.63a7.68,7.68,0,0,0,5.3-2Zm8.89-9c0-6.5,4.55-11.75,11.91-11.75s11.93,5.25,11.93,11.75S216,55,208.64,55,196.73,49.69,196.73,43.2Zm19.19,0a7.25,7.25,0,1,0-14.49,0,7.25,7.25,0,1,0,14.49,0Zm20.72,11.26H232.1V31.93h4.54Zm33.68,0h-1.09L254.14,40.72V54.46h-4.55V31.93h1.13l15.09,13.44V32h4.51Z"/><path class="cls-2" d="M61,61.6a28.18,28.18,0,0,1-5,3.45c.34-.27-.73-1.39-.4-1.68,8.08-7,9.92-16.07,6.66-24-.44-1.07.49-1.5.49-2.49C70.27,43.89,69.47,54.28,61,61.6Z"/><path class="cls-2" d="M62.83,36.85A26.88,26.88,0,0,0,51.3,30.78h0c1.64.43,1.76,2.32,2.89,3.28,2.41,2,3.06,4.65,3.31,8.11.37,5.14.34,10.22-3.41,14.75a20.29,20.29,0,0,1-7.4,5.8L46,63a.29.29,0,0,1-.1,0,25,25,0,0,1-4.72,1.36c-6.08,1.15-14.14.67-23.88-2.43a35.2,35.2,0,0,0,25.92,7.15h0c.66-.07,1.3-.17,1.94-.28a35.41,35.41,0,0,0,7.28-2.09h0a31.68,31.68,0,0,0,3.57-1.7c.34-.27.68-.55,1-.84C66.25,56.24,68.33,45.42,62.83,36.85Z"/><path class="cls-2" d="M46,63C57.42,58.37,58,46.6,44.8,40c-9.62-4.81-5.37-12.45,6.5-9.2C64.57,34.27,60.65,57.37,46,63Z"/><path class="cls-2" d="M63.71,24.43c-12.52-4-22.23-3.64-28.6-1.08l-.1,0C25.54,27.25,23.52,36,30.72,42.69c-1.9-1.57-4.06-3.25-5-5.37a16.29,16.29,0,0,1-1.08-8.91,13.13,13.13,0,0,1,7-9.38,20.73,20.73,0,0,1,6.12-1.76A35.09,35.09,0,0,1,63.71,24.43Z"/><path class="cls-2" d="M32.84,56.25c-.82-.27-1.75-.39-2.51-.7C20.66,51.66,15.5,44.43,15.68,37.29c.14-5.07,3.11-10.21,8-14.44a33.32,33.32,0,0,1,4.87-3.2h0a34.79,34.79,0,0,1,7.28-2.08c.65-.12,1.31-.21,2-.29a18.44,18.44,0,0,0-2.24.47c-12.52,3.4-13.26,18-4.84,25h0a23.94,23.94,0,0,0,5.51,3.71C45,50.78,42.28,57.47,32.84,56.25Z"/><path class="cls-2" d="M32.84,56.25a22.56,22.56,0,0,1-3.1-.64C11.2,50.55,8.48,34.8,20,24.79a30.62,30.62,0,0,1,8.54-5.14,30.93,30.93,0,0,0-4.6,3.29C11.67,33.6,14.11,50.18,32.84,56.25Z"/></g></svg>