<svg xmlns="http://www.w3.org/2000/svg" viewBox="0 0 283.46 85.04"><defs><style>.cls-1{fill:#f1f1f2;}.cls-2{fill:#1f5eff;fill-rule:evenodd;}</style></defs><g id="Layer_7" data-name="Layer 7"><path class="cls-1" d="M86,47.7a12.47,12.47,0,0,0,6.64,2.18c2.74,0,3.83-1.09,3.83-2.52s-1-2.21-4.88-3.3c-5.11-1.43-7.77-3.23-7.77-6.83,0-4,3-6.68,8.78-6.68,6.05,0,8.53,2.32,8.53,2.32l-2.44,3.72a10.62,10.62,0,0,0-6.09-1.88c-2.47,0-3.68.87-3.68,2.26s1.17,2,4.7,2.92c5.52,1.47,8,3.42,8,7.06,0,3.94-2.74,7.1-8.9,7.1s-9.23-2.89-9.23-2.89ZM126.08,31h5.26L122.82,45v8.6h-4.55V44.92L109.83,31h5.25l4.66,7.85.64,1.43h.41l.68-1.43ZM141.66,47.7a12.52,12.52,0,0,0,6.65,2.18c2.74,0,3.83-1.09,3.83-2.52s-1-2.21-4.88-3.3c-5.11-1.43-7.77-3.23-7.77-6.83,0-4,3-6.68,8.78-6.68,6,0,8.52,2.32,8.52,2.32l-2.44,3.72a10.57,10.57,0,0,0-6.08-1.88c-2.48,0-3.68.87-3.68,2.26s1.17,2,4.69,2.92c5.52,1.47,8,3.42,8,7.06,0,3.94-2.74,7.1-8.9,7.1s-9.24-2.89-9.24-2.89Zm45.58,3.57s-2.52,2.78-8,2.78c-7.36,0-12-5.26-12-11.75s4.62-11.75,12-11.75c5.48,0,8,2.77,8,2.77l-2.59,3.49a9.3,9.3,0,0,0-5.3-1.91A7.11,7.11,0,0,0,172,42.3a7.13,7.13,0,0,0,7.35,7.43,7.68,7.68,0,0,0,5.3-1.95Zm8.9-9c0-6.5,4.54-11.75,11.9-11.75S220,35.8,220,42.3,215.43,54.05,208,54.05,196.14,48.79,196.14,42.3Zm19.18,0a7.25,7.25,0,1,0-14.49,0,7.25,7.25,0,1,0,14.49,0ZM236,53.56H231.5V31H236Zm33.68,0h-1.09L253.54,39.82V53.56H249V31h1.13l15.09,13.44V31.07h4.51Z"/><path class="cls-2" d="M60.45,60.7a28.64,28.64,0,0,1-5,3.45c.34-.27-.72-1.39-.4-1.68,8.08-7,9.92-16.07,6.66-24-.44-1.07.49-1.5.49-2.49C69.68,43,68.87,53.38,60.45,60.7Z"/><path class="cls-2" d="M62.23,36A26.88,26.88,0,0,0,50.7,29.88h0c1.63.43,1.76,2.32,2.88,3.28,2.41,2,3.06,4.65,3.31,8.11.37,5.14.34,10.22-3.41,14.75a20.19,20.19,0,0,1-7.4,5.8c-.22.1-.43.2-.66.29l-.09,0a25.44,25.44,0,0,1-4.72,1.36c-6.09,1.15-14.15.67-23.89-2.43A35.24,35.24,0,0,0,29,67.22a35.59,35.59,0,0,0,13.65,1h0c.66-.07,1.3-.17,1.94-.28a35.41,35.41,0,0,0,7.28-2.09h0a31.68,31.68,0,0,0,3.57-1.7c.34-.27.68-.55,1-.84C65.65,55.34,67.73,44.52,62.23,36Z"/><path class="cls-2" d="M45.43,62.11c11.39-4.64,12-16.41-1.23-23-9.62-4.81-5.37-12.44,6.51-9.2C64,33.37,60.05,56.47,45.43,62.11Z"/><path class="cls-2" d="M63.11,23.53c-12.52-4-22.23-3.64-28.6-1.08l-.1,0c-9.47,3.86-11.49,12.65-4.29,19.3-1.9-1.57-4.06-3.25-5-5.37A16.29,16.29,0,0,1,24,27.51a13.11,13.11,0,0,1,7.05-9.38,20.58,20.58,0,0,1,6.11-1.76A35.09,35.09,0,0,1,63.11,23.53Z"/><path class="cls-2" d="M32.24,55.35c-.82-.27-1.75-.39-2.51-.7C20.06,50.76,14.9,43.53,15.09,36.39c.13-5.07,3.1-10.21,8-14.44a33.32,33.32,0,0,1,4.87-3.2s0,0,0,0a35.4,35.4,0,0,1,7.28-2.08c.65-.12,1.31-.21,2-.29a18.44,18.44,0,0,0-2.24.47c-12.51,3.4-13.26,18-4.84,25h0a23.8,23.8,0,0,0,5.52,3.71C44.37,49.88,41.68,56.57,32.24,55.35Z"/><path class="cls-2" d="M32.24,55.35a24,24,0,0,1-3.1-.63C10.6,49.65,7.88,33.9,19.39,23.89a30.62,30.62,0,0,1,8.54-5.14A31.67,31.67,0,0,0,23.33,22C11.07,32.7,13.51,49.28,32.24,55.35Z"/></g></svg>