<svg xmlns="http://www.w3.org/2000/svg" viewBox="0 0 283.46 85.04"><defs><style>.cls-1{fill:#fff;}</style></defs><g id="Layer_5" data-name="Layer 5"><path class="cls-1" d="M86.64,47.93a12.56,12.56,0,0,0,6.65,2.17c2.74,0,3.83-1.09,3.83-2.51s-1-2.22-4.88-3.31c-5.11-1.42-7.77-3.22-7.77-6.83,0-4,3-6.68,8.78-6.68,6,0,8.52,2.33,8.52,2.33l-2.44,3.71a10.61,10.61,0,0,0-6.08-1.87c-2.48,0-3.68.86-3.68,2.25s1.17,2,4.69,2.93c5.52,1.46,8,3.41,8,7.06,0,3.94-2.74,7.09-8.9,7.09s-9.24-2.89-9.24-2.89ZM126.7,31.26H132l-8.53,13.93v8.59h-4.54V45.15l-8.45-13.89h5.26l4.66,7.84.63,1.43h.42l.67-1.43Zm15.58,16.67a12.55,12.55,0,0,0,6.64,2.17c2.75,0,3.83-1.09,3.83-2.51s-1-2.22-4.88-3.31c-5.1-1.42-7.77-3.22-7.77-6.83,0-4,3-6.68,8.79-6.68,6,0,8.52,2.33,8.52,2.33L155,36.81a10.61,10.61,0,0,0-6.08-1.87c-2.48,0-3.68.86-3.68,2.25s1.16,2,4.69,2.93c5.52,1.46,8,3.41,8,7.06,0,3.94-2.75,7.09-8.9,7.09s-9.24-2.89-9.24-2.89Zm45.57,3.56s-2.51,2.78-7.95,2.78c-7.36,0-12-5.26-12-11.75s4.62-11.75,12-11.75c5.48,0,7.95,2.78,7.95,2.78L185.26,37A9.23,9.23,0,0,0,180,35.12a7.11,7.11,0,0,0-7.36,7.4A7.14,7.14,0,0,0,180,50a7.64,7.64,0,0,0,5.29-2Zm8.9-9c0-6.5,4.54-11.75,11.9-11.75S220.59,36,220.59,42.52s-4.54,11.75-11.94,11.75S196.75,49,196.75,42.52Zm19.19,0a7.25,7.25,0,1,0-14.5,0,7.25,7.25,0,1,0,14.5,0Zm20.72,11.26h-4.54V31.26h4.54Zm33.67,0h-1.09L254.15,40V53.78h-4.54V31.26h1.13L265.83,44.7V31.29h4.5Z"/><path class="cls-1" d="M61.06,60.93a28.68,28.68,0,0,1-5,3.44c.34-.27-.73-1.39-.41-1.68,8.08-7,9.93-16.07,6.67-24-.44-1.08.49-1.51.49-2.49C70.29,43.21,69.49,53.6,61.06,60.93Z"/><path class="cls-1" d="M62.85,36.18a26.88,26.88,0,0,0-11.53-6.07l-.07,0,.07,0c1.63.43,1.76,2.32,2.89,3.27,2.4,2,3.06,4.66,3.31,8.11.37,5.14.34,10.22-3.42,14.75a20.32,20.32,0,0,1-7.4,5.81l-.65.28-.1,0a25,25,0,0,1-4.72,1.35c-6.09,1.15-14.14.67-23.88-2.43a35.32,35.32,0,0,0,12.26,6.16,35.81,35.81,0,0,0,13.65,1h0c.65-.07,1.3-.17,1.94-.28a35.76,35.76,0,0,0,7.28-2.08h0a34.52,34.52,0,0,0,3.57-1.71c.34-.27.68-.55,1-.83C66.27,55.56,68.35,44.75,62.85,36.18Z"/><path class="cls-1" d="M46.05,62.33c11.39-4.64,12-16.4-1.24-23-9.61-4.81-5.36-12.45,6.51-9.2C64.59,33.59,60.66,56.69,46.05,62.33Z"/><path class="cls-1" d="M63.73,23.75c-12.52-4-22.23-3.64-28.61-1.07l-.09,0C25.56,26.58,23.54,35.36,30.74,42c-1.9-1.57-4.06-3.24-5-5.37a16.29,16.29,0,0,1-1.08-8.91,13.13,13.13,0,0,1,7-9.38,21.37,21.37,0,0,1,6.11-1.76A35.21,35.21,0,0,1,63.73,23.75Z"/><path class="cls-1" d="M32.86,55.57c-.82-.26-1.75-.39-2.51-.7C20.68,51,15.52,43.75,15.7,36.61c.13-5.07,3.11-10.2,8-14.44A33.21,33.21,0,0,1,28.54,19h0a35.69,35.69,0,0,1,7.29-2.09c.65-.11,1.31-.21,2-.29a18.84,18.84,0,0,0-2.24.48c-12.51,3.4-13.26,18-4.83,25h0a23.65,23.65,0,0,0,5.51,3.72C45,50.1,42.3,56.79,32.86,55.57Z"/><path class="cls-1" d="M32.86,55.57a22.57,22.57,0,0,1-3.11-.63C11.22,49.87,8.5,34.13,20,24.11A30.71,30.71,0,0,1,28.54,19,32.12,32.12,0,0,0,24,22.26C11.69,32.93,14.13,49.51,32.86,55.57Z"/></g></svg>